<svg width="200" height="29" viewBox="0 0 615 92" fill="none" xmlns="http://www.w3.org/2000/svg">
<path d="M49.272 0.399994C50.7227 0.399994 51.448 4.19733 51.448 11.792C51.448 19.3013 50.7227 23.056 49.272 23.056H25.848V37.648H41.464C42.9147 37.648 43.64 40.976 43.64 47.632C43.64 54.2027 42.9573 57.488 41.592 57.488H25.848V88.336C25.848 89.5307 24.2267 90.2987 20.984 90.64C17.8267 91.0667 15.1813 91.28 13.048 91.28L7.032 91.024C2.85067 90.512 0.76 89.6587 0.76 88.464V3.728C0.76 2.36266 1.016 1.46666 1.528 1.03999C2.12533 0.613327 2.97867 0.399994 4.088 0.399994H49.272ZM66.511 73.488V39.312H59.695C58.607 39.312 57.839 37.936 57.391 35.184C57.199 33.84 57.103 32.464 57.103 31.056C57.103 29.648 57.199 28.272 57.391 26.928C57.839 24.176 58.607 22.8 59.695 22.8H91.951C93.039 22.8 93.775 24.176 94.159 26.928C94.415 28.272 94.543 29.648 94.543 31.056C94.543 32.464 94.415 33.84 94.159 35.184C93.775 37.936 93.039 39.312 91.951 39.312H85.519V73.488H92.239C93.327 73.488 94.095 74.864 94.543 77.616C94.799 78.96 94.927 80.336 94.927 81.744C94.927 83.152 94.799 84.528 94.543 85.872C94.095 88.624 93.327 90 92.239 90H59.887C58.799 90 58.063 88.624 57.679 85.872C57.423 84.528 57.295 83.152 57.295 81.744C57.295 80.336 57.423 78.96 57.679 77.616C58.063 74.864 58.799 73.488 59.887 73.488H66.511ZM153.939 87.888C153.939 89.232 150.931 89.904 144.915 89.904C138.899 89.904 135.635 89.424 135.123 88.464L119.091 58.512V88.368C119.091 89.52 116.115 90.096 110.163 90.096C104.275 90.096 101.331 89.52 101.331 88.368V24.144C101.331 23.184 103.859 22.704 108.915 22.704C110.899 22.704 113.203 22.896 115.827 23.28C118.515 23.6 120.147 24.24 120.723 25.2L136.083 54.768V24.624C136.083 23.408 139.059 22.8 145.011 22.8C150.963 22.8 153.939 23.408 153.939 24.624V87.888ZM163.581 85.584V27.984C163.581 26.384 163.965 25.136 164.733 24.24C165.565 23.28 166.621 22.8 167.901 22.8H183.933C194.109 22.8 201.821 25.36 207.069 30.48C212.381 35.6 215.037 43.664 215.037 54.672C215.037 78.224 204.989 90 184.893 90H168.477C165.213 90 163.581 88.528 163.581 85.584ZM182.013 41.04V69.744C182.013 71.088 182.109 71.952 182.301 72.336C182.493 72.656 183.069 72.816 184.029 72.816C187.549 72.816 190.205 71.504 191.997 68.88C193.853 66.256 194.781 61.904 194.781 55.824C194.781 49.68 193.821 45.68 191.901 43.824C190.045 41.968 187.069 41.04 182.973 41.04H182.013ZM313.938 90.128C306.343 90.128 302.546 89.2747 302.546 87.568L299.858 36.24L284.242 88.208C283.9 89.232 280.999 89.744 275.538 89.744C270.076 89.744 267.26 89.2747 267.09 88.336L250.962 35.728L249.17 86.8C249.084 88.08 247.463 88.976 244.306 89.488C241.148 89.9147 238.503 90.128 236.37 90.128C234.322 90.128 232.316 90 230.354 89.744C226.258 89.1467 224.252 88.08 224.338 86.544L227.282 3.34399C227.282 1.296 232.487 0.271996 242.898 0.271996C245.97 0.271996 249.724 0.527995 254.162 1.03999C258.599 1.46666 261.074 2.36266 261.586 3.728L275.922 44.048L288.465 3.6C289.234 1.38133 295.122 0.271996 306.13 0.271996C309.287 0.271996 313.042 0.527995 317.394 1.03999C321.831 1.46666 324.05 2.27733 324.05 3.47199L327.762 87.44C327.762 88.3787 326.098 89.0613 322.77 89.488C319.442 89.9147 316.498 90.128 313.938 90.128ZM372.271 25.968C373.103 23.728 377.199 22.608 384.559 22.608C386.415 22.608 388.591 22.736 391.087 22.992C393.647 23.248 394.831 23.568 394.639 23.952L374.671 64.08V87.504C374.671 88.592 372.911 89.36 369.391 89.808C367.599 90.064 365.839 90.192 364.111 90.192C362.383 90.192 360.655 90.096 358.927 89.904C355.407 89.456 353.647 88.656 353.647 87.504V64.656L333.006 24.144C332.75 23.76 334.062 23.408 336.943 23.088C339.823 22.704 342.255 22.512 344.239 22.512C352.111 22.512 356.431 23.664 357.199 25.968L364.207 45.552L372.271 25.968ZM398.245 82.448V2.83199C398.245 1.04 402.554 0.143997 411.173 0.143997C419.877 0.143997 424.229 1.04 424.229 2.83199V65.552H443.941C445.477 65.552 446.544 67.5573 447.141 71.568C447.397 73.5307 447.525 75.536 447.525 77.584C447.525 79.632 447.397 81.7227 447.141 83.856C446.458 87.952 445.349 90 443.813 90H404.389C402.512 90 401.018 89.232 399.909 87.696C398.8 86.16 398.245 84.4107 398.245 82.448ZM482.062 90.96C473.102 90.96 465.774 88.016 460.078 82.128C454.446 76.24 451.63 67.664 451.63 56.4C451.63 45.072 454.478 36.496 460.174 30.672C465.934 24.848 473.326 21.936 482.35 21.936C491.438 21.936 498.766 24.816 504.334 30.576C509.902 36.272 512.686 44.944 512.686 56.592C512.686 68.176 509.838 76.816 504.142 82.512C498.446 88.144 491.086 90.96 482.062 90.96ZM482.158 40.368C479.086 40.368 476.494 41.776 474.382 44.592C472.334 47.408 471.31 51.376 471.31 56.496C471.31 61.552 472.302 65.456 474.286 68.208C476.27 70.896 478.862 72.24 482.062 72.24C485.326 72.24 487.95 70.864 489.934 68.112C491.982 65.36 493.006 61.424 493.006 56.304C493.006 51.184 491.95 47.248 489.838 44.496C487.79 41.744 485.23 40.368 482.158 40.368ZM522.89 66.576C524.106 67.536 526.186 68.848 529.13 70.512C532.138 72.176 534.986 73.008 537.674 73.008C540.426 73.008 541.802 71.952 541.802 69.84C541.802 68.88 541.418 68.048 540.65 67.344C539.882 66.576 538.474 65.712 536.426 64.752C534.378 63.792 532.842 63.056 531.818 62.544C530.794 61.968 529.418 61.072 527.69 59.856C526.026 58.576 524.746 57.264 523.85 55.92C521.29 52.272 520.01 47.632 520.01 42C520.01 36.368 522.09 31.632 526.25 27.792C530.474 23.888 535.978 21.936 542.762 21.936C547.37 21.936 551.626 22.448 555.53 23.472C559.434 24.432 561.45 25.712 561.578 27.312C561.578 27.504 561.578 27.696 561.578 27.888C561.578 30.128 560.874 32.976 559.466 36.432C558.058 39.824 557.066 41.712 556.49 42.096C552.394 39.984 548.714 38.928 545.45 38.928C542.25 38.928 540.65 40.08 540.65 42.384C540.65 43.792 541.834 45.04 544.202 46.128C544.714 46.384 545.45 46.736 546.41 47.184C547.37 47.632 548.458 48.176 549.674 48.816C550.954 49.392 552.298 50.16 553.706 51.12C555.178 52.016 556.746 53.232 558.41 54.768C561.802 57.968 563.498 62.192 563.498 67.44C563.498 74.288 561.61 79.888 557.834 84.24C554.058 88.592 548.234 90.832 540.362 90.96C536.522 90.96 533.034 90.64 529.898 90C526.826 89.36 524.138 88.112 521.834 86.256C519.53 84.4 518.378 82.16 518.378 79.536C518.378 76.912 518.858 74.32 519.818 71.76C520.778 69.136 521.802 67.408 522.89 66.576ZM600.29 88.464C600.29 89.744 597.122 90.384 590.786 90.384C584.45 90.384 581.282 89.744 581.282 88.464V40.272H569.762C568.674 40.272 567.906 38.8 567.458 35.856C567.266 34.448 567.17 33.008 567.17 31.536C567.17 30.064 567.266 28.624 567.458 27.216C567.906 24.272 568.674 22.8 569.762 22.8H611.522C612.61 22.8 613.378 24.272 613.826 27.216C614.018 28.624 614.114 30.064 614.114 31.536C614.114 33.008 614.018 34.448 613.826 35.856C613.378 38.8 612.61 40.272 611.522 40.272H600.29V88.464Z" fill={fill}3/>
</svg>
