<svg width="727" height="501" viewBox="0 0 827 501" fill="none" xmlns="http://www.w3.org/2000/svg">
<g clip-path="url(#clip0_11_31)">
<path d="M656.77 75.91C662.3 73.1685 669.469 76.3631 672.781 83.0455C674.675 86.8646 674.892 90.9927 673.705 94.3439L673.78 94.496L695.514 133.188L734.408 112.739C741.7 108.247 750.483 107.037 755.562 113.933C761.854 122.478 758.536 134.657 748.778 138.828L698.027 160.526C690.817 163.609 682.474 160.255 679.403 153.04L661.188 100.549C657.801 99.4651 654.648 96.7924 652.755 92.9734C649.442 86.291 651.24 78.6515 656.77 75.91Z" fill="#9B616A"/>
<path d="M750.474 101.157L705.658 123.458L722.639 156.371L767.753 129.718" fill="#CACACB"/>
<path d="M701.373 461.898H684.568V484.048H701.373V461.898Z" fill="#9B616A"/>
<path d="M698.505 499.336H662.782C659.728 499.336 656.66 498.636 653.908 497.314L647.322 494.148C645.961 493.493 645.081 492.094 645.081 490.583C645.081 488.811 646.273 487.244 647.981 486.771L661.568 483.012L684.811 470.794L684.829 470.882C685.263 473.084 685.937 476.41 686.023 476.612C688.406 479.342 690.855 480.6 693.301 480.353C697.567 479.92 700.402 474.994 700.431 474.944L700.452 474.906L700.496 474.911C701.495 475.014 702.234 475.417 702.692 476.108C703.665 477.576 703.071 479.835 702.974 480.176C704.139 481.317 704.662 487.684 704.703 488.198C706.388 489.985 707.189 491.702 707.082 493.302C706.99 494.701 706.214 496.001 704.776 497.164C703.047 498.564 700.82 499.336 698.505 499.336Z" fill="#090814"/>
<path d="M812.214 451.796L796.078 456.49L802.265 477.759L818.402 473.064L812.214 451.796Z" fill="#9B616A"/>
<path d="M819.918 488.544L785.616 498.523C782.684 499.376 779.543 499.562 776.531 499.06L769.323 497.86C767.833 497.612 766.597 496.514 766.175 495.063C765.68 493.362 766.387 491.524 767.895 490.593L779.891 483.188L798.797 464.964L798.838 465.044C799.87 467.036 801.446 470.042 801.585 470.212C804.636 472.168 807.339 472.692 809.618 471.771C813.593 470.164 814.94 464.642 814.953 464.586L814.963 464.544L815.006 464.536C815.994 464.356 816.816 464.537 817.45 465.072C818.794 466.209 818.855 468.545 818.857 468.9C820.294 469.669 822.575 475.637 822.757 476.119C824.874 477.364 826.123 478.789 826.468 480.355C826.77 481.725 826.388 483.189 825.333 484.708C824.063 486.535 822.14 487.898 819.918 488.544Z" fill="#090814"/>
<path d="M764.357 63.8242C764.357 48.7349 752.125 36.5026 737.035 36.5026C721.946 36.5026 709.714 48.7349 709.714 63.8242C709.714 76.0618 717.76 86.4187 728.85 89.897L734.132 124.803L761.057 102.365C761.057 102.365 755.241 94.9559 752.121 86.6017C759.494 81.7089 764.357 73.3361 764.357 63.8242Z" fill="#9B616A"/>
<path d="M775.138 198.672L779.081 143.457C779.423 138.668 778.818 133.859 777.3 129.305L765.613 94.2445L731.187 105.302L716.661 138.535L708.749 153.039C705.147 159.642 706.327 167.829 711.645 173.147L716.661 178.163L709.668 203.805L710.403 203.778L709.413 203.905C709.413 203.905 662.678 344.522 664.35 464.107H724.345L727.906 325.288L738.327 469.495L817.386 464.943L775.138 198.672Z" fill="#CACACB"/>
<path d="M773.129 99.7219C773.129 99.7219 771.854 109.402 760.033 109.718C744.048 110.145 736.055 110.359 736.055 110.359C736.055 110.359 756.325 61.0303 747.99 66.5875C739.656 72.1447 717.43 48.8471 717.43 48.8471L710.872 61.1466C710.872 61.1466 695.204 55.473 712.568 41.58C712.568 41.58 733.286 25.5629 755.28 35.1812C777.274 44.7995 773.129 99.7219 773.129 99.7219Z" fill="#090814"/>
<path d="M676.164 209.557C675.845 203.392 681.625 198.083 689.074 197.699C693.33 197.479 697.205 198.919 699.809 201.341L699.978 201.332L744.121 196.76L740.809 152.943C739.584 144.467 741.964 135.926 750.31 134.006C760.651 131.627 770.508 139.511 770.46 150.122L770.207 205.316C770.17 213.158 763.778 219.482 755.937 219.433L700.529 215.292C698.189 217.969 694.484 219.801 690.227 220.021C682.778 220.406 676.482 215.721 676.164 209.557Z" fill="#9B616A"/>
<path d="M736.564 133.598L739.222 183.586L776.173 181.08L769.638 129.09" fill="#CACACB"/>
<path d="M0 499.575C0 500.255 0.54402 500.812 1.23768 500.812H825.493C826.173 500.812 826.731 500.268 826.731 499.575C826.731 498.881 826.187 498.337 825.493 498.337H1.23768C0.55764 498.337 0 498.881 0 499.575Z" fill="#2F2E43"/>
<path d="M677.468 61.997H465.974C460.153 61.997 455.433 66.7163 455.433 72.5377V72.5378C455.433 78.3593 460.153 83.0785 465.974 83.0785H677.468C683.29 83.0785 688.009 78.3593 688.009 72.5377C688.009 66.7163 683.29 61.997 677.468 61.997Z" fill="#6C63FF"/>
<path d="M677.468 147.683H511.537C505.716 147.683 500.997 152.402 500.997 158.223V158.223C500.997 164.045 505.716 168.764 511.537 168.764H677.468C683.29 168.764 688.009 164.045 688.009 158.223C688.009 152.402 683.29 147.683 677.468 147.683Z" fill="#6C63FF"/>
<path d="M646.186 203.446H677.468C683.29 203.446 688.009 208.166 688.009 213.987C688.009 219.809 683.29 224.528 677.468 224.528H646.186C640.365 224.528 635.645 219.809 635.645 213.987C635.645 208.166 640.365 203.446 646.186 203.446Z" fill="#6C63FF"/>
<path d="M351.727 120.481H193.956C188.135 120.481 183.416 125.2 183.416 131.022V131.022C183.416 136.843 188.135 141.562 193.956 141.562H351.727C357.548 141.562 362.267 136.843 362.267 131.022C362.267 125.2 357.548 120.481 351.727 120.481Z" fill="#CACACB"/>
<path d="M193.956 174.884H240.199C246.021 174.884 250.74 179.604 250.74 185.425C250.74 191.247 246.021 195.966 240.199 195.966H193.956C188.135 195.966 183.416 191.247 183.416 185.425C183.416 179.604 188.135 174.884 193.956 174.884Z" fill="#CACACB"/>
<path d="M677.468 91.9189H526.498C520.677 91.9189 515.958 96.6382 515.958 102.46V102.46C515.958 108.281 520.677 113 526.498 113H677.468C683.29 113 688.009 108.281 688.009 102.46C688.009 96.6382 683.29 91.9189 677.468 91.9189Z" fill="#6C63FF"/>
<path d="M12.1189 445.426L26.0686 455.71L36.3526 441.76L22.403 431.476L12.1189 445.426Z" fill="#E8989B"/>
<path d="M1.26847 454.231C0.787372 452.385 0.938442 450.832 1.71768 449.614C2.60893 448.22 4.32439 447.285 6.81609 446.834C7.16418 446.432 11.495 441.466 13.1601 441.233C13.2876 440.89 14.1777 438.651 15.8834 438.029C16.6869 437.735 17.5467 437.853 18.4391 438.379L18.478 438.402L18.4726 438.446C18.4656 438.505 17.8051 444.329 21.0814 447.298C22.9597 449.001 25.7622 449.455 29.4117 448.647C29.6062 448.532 32.2005 446.183 33.9085 444.622L33.9768 444.56L45.7938 468.924L54.7709 480.359C55.8992 481.796 55.9299 483.827 54.8457 485.298C53.9212 486.552 52.3346 487.175 50.8038 486.885L43.4001 485.482C40.3065 484.896 37.3317 483.599 34.7973 481.731L5.14516 459.87C3.22403 458.454 1.84724 456.451 1.26847 454.231Z" fill="#090814"/>
<path d="M170.485 485.199H187.816V467.869H170.485V485.199Z" fill="#E8989B"/>
<path d="M166.976 498.725C165.494 497.525 164.694 496.185 164.598 494.742C164.489 493.092 165.314 491.321 167.052 489.479C167.094 488.949 167.633 482.382 168.835 481.206C168.734 480.855 168.122 478.525 169.126 477.011C169.598 476.299 170.36 475.883 171.39 475.777L171.435 475.772L171.458 475.811C171.487 475.862 174.411 480.942 178.81 481.388C181.332 481.644 183.857 480.346 186.315 477.53C186.404 477.322 187.098 473.893 187.547 471.622L187.565 471.532L211.534 484.131L225.545 488.008C227.306 488.495 228.536 490.111 228.536 491.938C228.536 493.496 227.629 494.939 226.224 495.614L219.433 498.879C216.595 500.243 213.431 500.964 210.282 500.964H173.443C171.056 500.964 168.76 500.169 166.976 498.725Z" fill="#090814"/>
<path d="M82.2053 192.786H165.266L192.953 470.088H165.266L122.584 292.151L109.892 342.355L39.9932 452.024L12.4628 425.216L71.8253 331.437L82.2053 192.786Z" fill="#090814"/>
<path d="M107.157 36.4292C107.157 20.8685 119.772 8.25427 135.332 8.25427C150.893 8.25427 163.507 20.8685 163.507 36.4292C163.507 49.0488 155.21 59.7293 143.773 63.3162L138.327 99.3124L110.56 76.1735C110.56 76.1735 116.559 68.5331 119.776 59.918C112.173 54.8722 107.157 46.238 107.157 36.4292Z" fill="#E8989B"/>
<path d="M120.556 60.7761C120.556 60.7761 115.184 33.5955 122.949 36.8308C130.713 40.066 128.636 45.5352 128.636 45.5352L136.077 34.5354V21.9179L140.93 16.418L161.635 25.1532C161.635 25.1532 172.635 -7.19924 141.253 3.15352C141.253 3.15352 114.401 -7.8463 106.636 11.2416C88.2278 54.2408 120.556 60.7761 120.556 60.7761Z" fill="#090814"/>
<path d="M82.49 194.615L156.123 194.942C162.253 195.251 167.308 191.608 166.727 187.3L152.774 83.905L127.822 70.8273C122.558 68.0683 116.108 69.0889 111.953 73.3383L97.1663 88.4599C93.288 92.4261 90.7961 96.9817 89.8937 101.755L82.9906 170.207C82.537 172.607 82.9261 175.049 84.124 177.318L86.8321 182.449C89.7026 187.887 74.2709 194.201 82.49 194.615Z" fill="#6C63FF"/>
<path d="M171.799 206.92L148.984 191.907L157.75 178.587L180.564 193.6C184.526 192.719 189.173 193.538 193.237 196.213C200.349 200.893 202.974 209.457 199.101 215.343C195.228 221.228 186.323 222.205 179.212 217.526C175.147 214.851 172.557 210.907 171.799 206.92Z" fill="#E8989B"/>
<path d="M102.926 119.331L110.089 176.122L156.782 205.205L177.927 184.44L132.455 159.804L139.288 92.8014" fill="#6C63FF"/>
</g>
<defs>
<clipPath id="clip0_11_31">
<rect width="826.731" height="500.964" fill="white"/>
</clipPath>
</defs>
</svg>
